<?xml version="1.0" encoding="utf-8"?>
<!-- Generator: Adobe Illustrator 21.1.0, SVG Export Plug-In . SVG Version: 6.00 Build 0)  -->
<svg version="1.1" id="Layer_1" xmlns="http://www.w3.org/2000/svg" xmlns:xlink="http://www.w3.org/1999/xlink" x="0px" y="0px"
	 viewBox="0 0 1641 1643" style="enable-background:new 0 0 1641 1643;" xml:space="preserve">
<style type="text/css">
	.st0{fill:#CDCDD0;}
</style>
<path class="st0" d="M363,1344c0-17.3-6.3-32.3-19-45s-27.7-19-45-19s-32.3,6.3-45,19s-19,27.7-19,45s6.3,32.3,19,45s27.7,19,45,19
	s32.3-6.3,45-19S363,1361.3,363,1344z M1007,924l-682,682c-24.7,24.7-54.7,37-90,37c-34.7,0-65-12.3-91-37L38,1498
	c-25.3-24-38-54-38-90c0-35.3,12.7-65.7,38-91l681-681c26,65.3,64.2,123.2,114.5,173.5S941.7,898,1007,924z M1641,489
	c0,26-7.7,61.3-23,106c-31.3,89.3-86.2,161.8-164.5,217.5S1289,896,1195,896c-123.3,0-228.8-43.8-316.5-131.5S747,571.3,747,448
	s43.8-228.8,131.5-316.5S1071.7,0,1195,0c38.7,0,79.2,5.5,121.5,16.5S1394.7,43,1424,63c10.7,7.3,16,16.7,16,28s-5.3,20.7-16,28
	l-293,169v224l193,107c3.3-2,29.7-18.2,79-48.5s94.5-57.3,135.5-81S1603,454,1609,454c10,0,17.8,3.3,23.5,10S1641,479,1641,489z"/>
</svg>
