<?xml version="1.0" encoding="UTF-8" standalone="no"?>
<!-- Created with Inkscape (http://www.inkscape.org/) -->

<svg
   xmlns:dc="http://purl.org/dc/elements/1.1/"
   xmlns:cc="http://creativecommons.org/ns#"
   xmlns:rdf="http://www.w3.org/1999/02/22-rdf-syntax-ns#"
   xmlns:svg="http://www.w3.org/2000/svg"
   xmlns="http://www.w3.org/2000/svg"
   xmlns:sodipodi="http://sodipodi.sourceforge.net/DTD/sodipodi-0.dtd"
   xmlns:inkscape="http://www.inkscape.org/namespaces/inkscape"
   width="1000"
   height="318.57001"
   viewBox="0 0 1000 318.57001"
   id="svg4147"
   version="1.1"
   inkscape:version="0.91 r13725"
   sodipodi:docname="Ubisoft 2017 Horizontal.svg">
  <defs
     id="defs4149" />
  <sodipodi:namedview
     id="base"
     pagecolor="#ffffff"
     bordercolor="#666666"
     borderopacity="1.0"
     inkscape:pageopacity="0.0"
     inkscape:pageshadow="2"
     inkscape:zoom="0.49497475"
     inkscape:cx="379.79193"
     inkscape:cy="118.1944"
     inkscape:document-units="px"
     inkscape:current-layer="layer1"
     showgrid="false"
     units="px"
     inkscape:window-width="1366"
     inkscape:window-height="705"
     inkscape:window-x="-8"
     inkscape:window-y="-8"
     inkscape:window-maximized="1" />
  <metadata
     id="metadata4152">
    <rdf:RDF>
      <cc:Work
         rdf:about="">
        <dc:format>image/svg+xml</dc:format>
        <dc:type
           rdf:resource="http://purl.org/dc/dcmitype/StillImage" />
        <dc:title></dc:title>
      </cc:Work>
    </rdf:RDF>
  </metadata>
  <g
     inkscape:label="Layer 1"
     inkscape:groupmode="layer"
     id="layer1"
     transform="translate(0,-733.79219)">
    <path
       id="SWIRL"
       d="M 306.92486,892.91364 C 303.4783,729.74643 86.481339,668.88752 2.9023627,821.8511 6.6210149,824.57207 11.70015,828.20002 15.418802,830.78494 9.0698835,844.16301 4.7616888,857.81319 2.4488685,871.50871 0.86163893,880.44255 0,889.64848 0,898.99046 c 0,84.62201 68.795066,153.37174 153.50778,153.37174 84.71271,0 153.37173,-68.61368 153.37173,-153.37174 0.0454,-2.04073 0.0454,-4.08145 0.0454,-6.07682 z m -269.058097,27.3457 c -1.995374,16.55253 -0.72559,21.72237 -0.72559,23.71774 l -3.718652,1.31513 c -1.451182,-2.72096 -4.897738,-12.38039 -6.484967,-25.30497 -4.036098,-49.34017 29.658519,-93.82795 80.994056,-102.17224 47.02735,-6.89311 92.10467,22.31192 102.58039,63.17174 l -3.71866,1.31513 c -1.13373,-1.13373 -3.03841,-4.44424 -10.20362,-11.6548 C 139.7669,813.7789 50.5646,839.80947 37.866763,920.25934 Z m 146.070477,27.61779 c -7.61871,10.92921 -20.13514,18.00372 -34.37486,18.00372 -23.17355,0 -41.85751,-18.68396 -41.85751,-41.85751 0,-21.99447 17.14208,-40.13424 38.86445,-41.72147 l 0,0 c 13.51412,-0.58954 26.16661,6.75707 32.10738,18.54791 6.48497,12.78854 4.17215,28.47944 -6.03147,39.13655 3.80935,2.72097 7.528,5.30588 11.29201,7.8908 z m 87.34298,1.58723 C 249.10435,999.66617 203.52819,1026.0142 154.86826,1025.2886 61.49381,1020.6629 34.284159,912.91273 96.730307,874.04828 l 2.720965,2.72096 c -0.997687,1.45119 -4.761689,4.3082 -10.521065,15.6909 -6.757063,13.83157 -8.933835,27.6178 -8.072196,36.27954 4.897737,75.23472 110.335129,90.65352 146.614669,16.09904 C 273.72908,842.84788 151.10426,739.08841 42.356356,818.35919 l -2.448869,-2.44886 C 68.522969,771.0144 124.5295,751.01531 177.90576,764.39339 c 81.53826,20.58863 125.43649,105.61879 93.37446,185.07097 z"
       inkscape:connector-curvature="0" />
    <path
       id="UBISOFT"
       d="m 455.85234,833.05241 0,70.79044 c 0,28.20733 -17.27813,49.20411 -48.79597,49.20411 -31.51785,0 -48.79597,-20.99678 -48.79597,-49.20411 l 0,-70.79044 25.62242,0 0,68.79506 c 0,17.14208 8.07219,26.89221 23.17355,26.89221 14.96531,0 23.17355,-9.79548 23.17355,-26.89221 l 0,-68.79506 25.62242,0 z m 95.41518,83.89642 c 0,20.45259 -15.963,35.10045 -41.85752,35.10045 l -40.85982,0 0,-117.99919 39.27259,0 c 22.72006,0 37.82142,10.92921 37.82142,28.47944 0,13.37808 -6.16752,21.45027 -15.55485,25.30497 12.69784,4.76169 21.17818,13.28738 21.17818,29.11433 z m -57.00422,-60.31473 0,24.89683 13.51413,0 c 7.89079,0 13.37807,-4.62564 13.37807,-12.51644 0,-7.89079 -5.48728,-12.51644 -13.37807,-12.51644 l -13.51413,0 0,0.13605 z m 14.23972,72.83117 c 10.92921,0 17.27812,-5.03379 17.27812,-14.82926 0,-9.79548 -6.16752,-14.82926 -17.27812,-14.82926 l -14.23972,0 0,29.65852 14.23972,0 z m 52.83207,-95.41518 25.62242,0 0,117.99919 -25.62242,0 0,-117.99919 z m 87.61507,47.79829 c 20.27119,7.02916 30.65621,16.09904 30.65621,34.37486 0,24.44333 -18.68396,38.00281 -40.85983,38.00281 -20.45259,0 -36.09813,-9.06988 -42.71915,-25.89452 l 20.45259,-15.10135 c 3.71865,10.65711 13.37808,17.14208 23.0375,17.14208 8.48034,0 14.51182,-4.62565 14.51182,-12.1083 0,-7.02916 -4.62564,-11.51875 -21.45028,-17.55022 -18.27581,-6.62102 -31.78994,-15.6909 -31.78994,-35.2365 0,-18.86536 15.6909,-33.24112 38.41096,-33.24112 18.13976,0 32.10738,7.21055 38.68305,21.58632 l -20.45259,14.10367 c -3.90005,-8.79779 -9.93152,-13.65018 -19.2735,-13.65018 -7.75475,0 -13.51413,4.17215 -13.51413,10.20362 0.13605,6.84776 6.62102,11.01991 24.30729,17.36883 z m 157.99737,11.20131 c 0,34.6923 -25.03288,60.99496 -60.13333,60.99496 -35.96208,0 -60.13332,-25.75847 -60.13332,-56.95887 0,-20.27119 7.89079,-34.9644 19.54559,-44.44243 l -4.03609,-4.03609 c 8.93383,-9.20594 25.30497,-16.55254 44.62382,-16.55254 35.10045,0 60.13333,26.62011 60.13333,60.99497 z m -26.07591,0 c 0,-21.31423 -13.51413,-36.68768 -34.10277,-36.68768 -11.92689,0 -20.86073,4.62564 -26.34801,10.52106 l 4.0361,4.0361 c -6.16752,5.16983 -11.79085,12.51644 -11.79085,25.48637 0,17.82232 12.65249,33.51322 34.10276,33.51322 20.72469,-0.1814 34.10277,-15.55485 34.10277,-36.86907 z m 62.17405,-34.69231 0,27.3457 50.06575,0 0,19.5456 -50.06575,0 0,46.75525 -25.62242,0 0,-117.95384 80.85801,0 0,24.30729 -55.23559,0 z m 156.95433,0 -33.10507,0 0,93.64655 -25.62243,0 0,-93.64655 -33.24112,0 0,-24.30729 91.92327,0 0,24.30729 0.0453,0 z"
       inkscape:connector-curvature="0" />
  </g>
</svg>
